<svg xmlns="http://www.w3.org/2000/svg" xmlns:xlink="http://www.w3.org/1999/xlink" width="40" zoomAndPan="magnify" viewBox="0 0 30 30.000001" height="40" preserveAspectRatio="xMidYMid meet" version="1.0"><defs><g/></defs><g fill="#000000" fill-opacity="1"><g transform="translate(0.340105, 26.109689)"><g><path d="M 22.03125 -1.671875 C 21.519531 -0.910156 21.003906 -0.363281 20.484375 -0.03125 C 19.972656 0.300781 19.296875 0.46875 18.453125 0.46875 C 17.546875 0.46875 16.796875 0.203125 16.203125 -0.328125 C 15.609375 -0.867188 15.171875 -1.804688 14.890625 -3.140625 L 14.15625 -6.46875 C 13.882812 -7.625 13.628906 -8.515625 13.390625 -9.140625 C 13.160156 -9.765625 12.8125 -10.265625 12.34375 -10.640625 C 11.875 -11.023438 11.21875 -11.21875 10.375 -11.21875 L 7.203125 -11.21875 L 7.203125 -3.53125 C 7.203125 -2.6875 7.269531 -2.078125 7.40625 -1.703125 C 7.539062 -1.328125 7.789062 -1.070312 8.15625 -0.9375 C 8.519531 -0.800781 9.101562 -0.710938 9.90625 -0.671875 L 9.90625 0 C 8.882812 -0.0625 7.472656 -0.09375 5.671875 -0.09375 C 3.753906 -0.09375 2.332031 -0.0625 1.40625 0 L 1.40625 -0.671875 C 2.207031 -0.710938 2.789062 -0.800781 3.15625 -0.9375 C 3.519531 -1.070312 3.769531 -1.328125 3.90625 -1.703125 C 4.039062 -2.078125 4.109375 -2.6875 4.109375 -3.53125 L 4.109375 -20.09375 C 4.109375 -20.9375 4.039062 -21.546875 3.90625 -21.921875 C 3.769531 -22.304688 3.519531 -22.5625 3.15625 -22.6875 C 2.789062 -22.820312 2.207031 -22.914062 1.40625 -22.96875 L 1.40625 -23.625 C 2.332031 -23.5625 3.6875 -23.53125 5.46875 -23.53125 L 9.078125 -23.5625 C 9.503906 -23.582031 9.984375 -23.59375 10.515625 -23.59375 C 13.097656 -23.59375 15.082031 -23.050781 16.46875 -21.96875 C 17.863281 -20.894531 18.5625 -19.5 18.5625 -17.78125 C 18.5625 -16.914062 18.351562 -16.039062 17.9375 -15.15625 C 17.53125 -14.28125 16.84375 -13.492188 15.875 -12.796875 C 14.90625 -12.097656 13.640625 -11.625 12.078125 -11.375 L 12.484375 -11.3125 C 13.953125 -11.070312 15.019531 -10.628906 15.6875 -9.984375 C 16.351562 -9.335938 16.84375 -8.3125 17.15625 -6.90625 L 17.984375 -3.5 C 18.210938 -2.476562 18.445312 -1.765625 18.6875 -1.359375 C 18.9375 -0.960938 19.269531 -0.765625 19.6875 -0.765625 C 20.070312 -0.765625 20.390625 -0.863281 20.640625 -1.0625 C 20.898438 -1.269531 21.195312 -1.59375 21.53125 -2.03125 Z M 9.671875 -22.96875 C 8.984375 -22.96875 8.46875 -22.890625 8.125 -22.734375 C 7.78125 -22.578125 7.539062 -22.296875 7.40625 -21.890625 C 7.269531 -21.492188 7.203125 -20.894531 7.203125 -20.09375 L 7.203125 -11.875 L 9.4375 -11.875 C 11.644531 -11.875 13.160156 -12.363281 13.984375 -13.34375 C 14.804688 -14.320312 15.21875 -15.679688 15.21875 -17.421875 C 15.21875 -19.242188 14.78125 -20.625 13.90625 -21.5625 C 13.039062 -22.5 11.628906 -22.96875 9.671875 -22.96875 Z M 9.671875 -22.96875 "/></g></g></g><g fill="#ffffff" fill-opacity="1"><g transform="translate(20.379053, 21.350197)"><g><path d="M -0.53125 4.4375 C 0.695312 4.40625 1.601562 3.953125 2.1875 3.078125 C 2.78125 2.203125 3.078125 0.71875 3.078125 -1.375 L 3.078125 -15.828125 C 3.078125 -16.492188 3.023438 -16.972656 2.921875 -17.265625 C 2.816406 -17.566406 2.617188 -17.769531 2.328125 -17.875 C 2.035156 -17.988281 1.578125 -18.0625 0.953125 -18.09375 L 0.953125 -18.625 C 1.679688 -18.570312 2.785156 -18.546875 4.265625 -18.546875 C 5.703125 -18.546875 6.832031 -18.570312 7.65625 -18.625 L 7.65625 -18.09375 C 7.019531 -18.0625 6.554688 -17.988281 6.265625 -17.875 C 5.984375 -17.769531 5.785156 -17.566406 5.671875 -17.265625 C 5.566406 -16.972656 5.515625 -16.492188 5.515625 -15.828125 L 5.515625 -6.203125 C 5.515625 -4.710938 5.488281 -3.394531 5.4375 -2.25 C 5.382812 -1.101562 5.265625 -0.132812 5.078125 0.65625 C 4.765625 1.9375 4.117188 2.96875 3.140625 3.75 C 2.171875 4.539062 0.945312 4.9375 -0.53125 4.9375 Z M -0.53125 4.4375 "/></g></g></g><g fill="#000000" fill-opacity="1"><g transform="translate(19.559215, 21.292869)"><g><path d="M -0.53125 4.4375 C 0.695312 4.40625 1.601562 3.953125 2.1875 3.078125 C 2.78125 2.203125 3.078125 0.71875 3.078125 -1.375 L 3.078125 -15.828125 C 3.078125 -16.492188 3.023438 -16.972656 2.921875 -17.265625 C 2.816406 -17.566406 2.617188 -17.769531 2.328125 -17.875 C 2.035156 -17.988281 1.578125 -18.0625 0.953125 -18.09375 L 0.953125 -18.625 C 1.679688 -18.570312 2.785156 -18.546875 4.265625 -18.546875 C 5.703125 -18.546875 6.832031 -18.570312 7.65625 -18.625 L 7.65625 -18.09375 C 7.019531 -18.0625 6.554688 -17.988281 6.265625 -17.875 C 5.984375 -17.769531 5.785156 -17.566406 5.671875 -17.265625 C 5.566406 -16.972656 5.515625 -16.492188 5.515625 -15.828125 L 5.515625 -6.203125 C 5.515625 -4.710938 5.488281 -3.394531 5.4375 -2.25 C 5.382812 -1.101562 5.265625 -0.132812 5.078125 0.65625 C 4.765625 1.9375 4.117188 2.96875 3.140625 3.75 C 2.171875 4.539062 0.945312 4.9375 -0.53125 4.9375 Z M -0.53125 4.4375 "/></g></g></g></svg>